<?xml version="1.0" encoding="UTF-8" standalone="no"?>
<!-- Created with Inkscape (http://www.inkscape.org/) -->

<svg
   width="8.3222656in"
   height="2.3003898in"
   viewBox="0 0 798.9375 220.83742"
   version="1.1"
   id="svg1"
   sodipodi:docname="VectorLogo1.svg"
   inkscape:version="1.4.2 (ebf0e940, 2025-05-08)"
   xmlns:inkscape="http://www.inkscape.org/namespaces/inkscape"
   xmlns:sodipodi="http://sodipodi.sourceforge.net/DTD/sodipodi-0.dtd"
   xmlns="http://www.w3.org/2000/svg"
   xmlns:svg="http://www.w3.org/2000/svg">
  <sodipodi:namedview
     id="namedview1"
     pagecolor="#ffffff"
     bordercolor="#000000"
     borderopacity="0.25"
     inkscape:showpageshadow="2"
     inkscape:pageopacity="0.0"
     inkscape:pagecheckerboard="0"
     inkscape:deskcolor="#d1d1d1"
     inkscape:document-units="in"
     inkscape:zoom="0.54836048"
     inkscape:cx="107.59346"
     inkscape:cy="337.36932"
     inkscape:window-width="1440"
     inkscape:window-height="847"
     inkscape:window-x="0"
     inkscape:window-y="25"
     inkscape:window-maximized="1"
     inkscape:current-layer="layer1" />
  <defs
     id="defs1" />
  <g
     id="layer1"
     transform="translate(-106.22954,-269.35128)">
    <g
       id="g6"
       transform="translate(-5.7662595e-7)">
      <g
         id="text1"
         style="font-size:192px;font-family:Optima;-inkscape-font-specification:Optima;letter-spacing:-7px"
         aria-label="GOFLOW">
        <path
           style="font-family:Arial;-inkscape-font-specification:Arial;letter-spacing:-10px;fill:#ffffff"
           d="m 175.13579,355.32004 v -16.125 l 58.21875,-0.0937 v 51 q -13.40625,10.6875 -27.65625,16.125 -14.25,5.34375 -29.25,5.34375 -20.25,0 -36.84375,-8.625 -16.5,-8.71875 -24.9375,-25.125 -8.4375,-16.40625 -8.4375,-36.65625 0,-20.0625 8.34375,-37.40625 8.4375,-17.4375 24.1875,-25.875 15.75,-8.4375 36.28125,-8.4375 14.90625,0 26.90625,4.875 12.09375,4.78125 18.9375,13.40625 6.84375,8.625 10.40625,22.5 l -16.40625,4.5 q -3.09375,-10.5 -7.6875,-16.5 -4.59375,-6 -13.125,-9.5625 -8.53125,-3.65625 -18.9375,-3.65625 -12.46875,0 -21.5625,3.84375 -9.09375,3.75 -14.71875,9.9375 -5.53125,6.1875 -8.625,13.59375 -5.25,12.75 -5.25,27.65625 0,18.375 6.28125,30.75 6.375,12.375 18.46875,18.375 12.09375,6 25.6875,6 11.8125,0 23.0625,-4.5 11.25,-4.59375 17.0625,-9.75 v -25.59375 z"
           id="path1" />
        <path
           style="font-family:Arial;-inkscape-font-specification:Arial;letter-spacing:0px;fill:#ffffff"
           d="m 244.63579,342.28879 q 0,-34.21875 18.375,-53.53125 18.375,-19.40625 47.4375,-19.40625 19.03125,0 34.3125,9.09375 15.28125,9.09375 23.25,25.40625 8.0625,16.21875 8.0625,36.84375 0,20.90625 -8.4375,37.40625 -8.4375,16.5 -23.90625,25.03125 -15.46875,8.4375 -33.375,8.4375 -19.40625,0 -34.6875,-9.375 -15.28125,-9.375 -23.15625,-25.59375 -7.875,-16.21875 -7.875,-34.3125 z m 18.75,0.28125 q 0,24.84375 13.3125,39.1875 13.40625,14.25 33.5625,14.25 20.53125,0 33.75,-14.4375 13.3125,-14.4375 13.3125,-40.96875 0,-16.78125 -5.71875,-29.25 -5.625,-12.5625 -16.59375,-19.40625 -10.875,-6.9375 -24.46875,-6.9375 -19.3125,0 -33.28125,13.3125 -13.875,13.21875 -13.875,44.25 z"
           id="path2" />
        <path
           style="font-family:Arial;-inkscape-font-specification:Arial;fill:#ffffff"
           d="m 400.44829,409.22629 v -137.4375 h 92.71875 v 16.21875 h -74.53125 v 42.5625 h 64.5 v 16.21875 h -64.5 v 62.4375 z"
           id="path3" />
        <path
           style="font-family:Arial;-inkscape-font-specification:Arial;letter-spacing:-18px;fill:#ffffff"
           d="m 509.04204,409.22629 v -137.4375 h 18.1875 v 121.21875 h 67.6875 v 16.21875 z"
           id="path4" />
        <path
           style="font-family:Arial;-inkscape-font-specification:Arial;fill:#ffffff"
           d="m 593.04204,342.28879 q 0,-34.21875 18.375,-53.53125 18.375,-19.40625 47.4375,-19.40625 19.03125,0 34.3125,9.09375 15.28125,9.09375 23.25,25.40625 8.0625,16.21875 8.0625,36.84375 0,20.90625 -8.4375,37.40625 -8.4375,16.5 -23.90625,25.03125 -15.46875,8.4375 -33.375,8.4375 -19.40625,0 -34.6875,-9.375 -15.28125,-9.375 -23.15625,-25.59375 -7.875,-16.21875 -7.875,-34.3125 z m 18.75,0.28125 q 0,24.84375 13.3125,39.1875 13.40625,14.25 33.5625,14.25 20.53125,0 33.75,-14.4375 13.3125,-14.4375 13.3125,-40.96875 0,-16.78125 -5.71875,-29.25 -5.625,-12.5625 -16.59375,-19.40625 -10.875,-6.9375 -24.46875,-6.9375 -19.3125,0 -33.28125,13.3125 -13.875,13.21875 -13.875,44.25 z m 153.125,66.65625 -36.46875,-137.4375 h 18.65625 l 20.90625,90.09375 q 3.375,14.15625 5.8125,28.125 5.25,-22.03125 6.1875,-25.40625 l 26.15625,-92.8125 h 21.9375 l 19.6875,69.5625 q 7.40625,25.875 10.6875,48.65625 2.625,-13.03125 6.84375,-29.90625 l 21.5625,-88.3125 h 18.28125 l -37.6875,137.4375 H 849.94829 L 820.97954,304.50754 q -3.65625,-13.125 -4.3125,-16.125 -2.15625,9.46875 -4.03125,16.125 l -29.15625,104.71875 z"
           id="path5" />
      </g>
      <path
         style="font-weight:900;font-size:88px;font-family:'Arial Black';-inkscape-font-specification:'Arial Black,  Heavy';letter-spacing:36px;fill:#fefefe"
         d="m 122.66595,426.07935 h 32.35547 q 10.57032,0 15.8125,5.02734 5.28516,5.02734 5.28516,14.30859 0,9.53907 -5.75781,14.91016 -5.71485,5.37109 -17.48828,5.37109 h -10.65625 v 23.375 h -19.55079 z m 19.55079,26.85546 h 4.76953 q 5.6289,0 7.90625,-1.93359 2.27734,-1.97656 2.27734,-5.02734 0,-2.96485 -1.97656,-5.02735 -1.97656,-2.0625 -7.4336,-2.0625 h -5.54296 z m 80.08593,-26.85546 h 19.46485 v 47.48046 h 30.3789 v 15.51172 h -49.84375 z m 133.41016,0 h 19.42187 v 37.55468 q 0,5.58594 -1.76171,10.57032 -1.71875,4.9414 -5.45704,8.67968 -3.69531,3.69532 -7.77734,5.19922 -5.67187,2.10547 -13.62109,2.10547 -4.59766,0 -10.05469,-0.64453 -5.41406,-0.64453 -9.06641,-2.53516 -3.65234,-1.93359 -6.70312,-5.45703 -3.00781,-3.52344 -4.125,-7.26172 -1.80469,-6.01562 -1.80469,-10.65625 v -37.55468 h 19.42188 v 38.45703 q 0,5.15625 2.83593,8.07812 2.87891,2.87891 7.94922,2.87891 5.02735,0 7.86328,-2.83594 2.87891,-2.87891 2.87891,-8.12109 z m 68.09766,0 h 25.60937 l 9.88281,38.32812 9.83985,-38.32812 h 25.52343 v 62.99218 h -15.89843 v -48.03906 l -12.33203,48.03906 h -14.39454 l -12.28906,-48.03906 v 48.03906 h -15.9414 z m 119.3164,0 h 36.4375 q 9.10938,0 13.96485,4.51171 4.89843,4.51172 4.89843,11.17188 0,5.58594 -3.48047,9.58203 -2.32031,2.66406 -6.78906,4.21094 6.78906,1.63281 9.96875,5.6289 3.22266,3.95313 3.22266,9.96875 0,4.89844 -2.27735,8.8086 -2.27734,3.91015 -6.23046,6.1875 -2.44922,1.41797 -7.39063,2.0625 -6.57422,0.85937 -8.72266,0.85937 h -33.60156 z m 19.63672,24.70703 h 8.46484 q 4.55469,0 6.31641,-1.54688 1.80469,-1.58984 1.80469,-4.55469 0,-2.75 -1.80469,-4.29687 -1.76172,-1.54688 -6.1875,-1.54688 h -8.59375 z m 0,24.75 h 9.92578 q 5.02735,0 7.08985,-1.76172 2.0625,-1.80469 2.0625,-4.8125 0,-2.79297 -2.0625,-4.46875 -2.01954,-1.71875 -7.13282,-1.71875 h -9.88281 z m 85.54297,-49.45703 h 19.50781 v 62.99218 h -19.50781 z m 69.60156,0 h 18.17578 l 23.71875,34.84765 v -34.84765 h 18.34766 v 62.99218 h -18.34766 l -23.58984,-34.58984 v 34.58984 h -18.30469 z m 140.84375,40.17578 v -13.10547 h 30.07813 v 26.85547 q -8.63672,5.88672 -15.29688,8.03515 -6.61719,2.10547 -15.72656,2.10547 -11.21484,0 -18.30469,-3.82422 -7.04687,-3.82422 -10.95703,-11.38672 -3.86719,-7.5625 -3.86719,-17.35937 0,-10.3125 4.25391,-17.91797 4.25391,-7.64844 12.46094,-11.60156 6.40234,-3.05078 17.23047,-3.05078 10.4414,0 15.59765,1.89062 5.19922,1.89063 8.59375,5.88672 3.4375,3.95313 5.15625,10.05469 l -18.77734,3.35156 q -1.16016,-3.56641 -3.95313,-5.45703 -2.75,-1.89063 -7.04687,-1.89063 -6.40235,0 -10.22656,4.46875 -3.78125,4.42579 -3.78125,14.05079 0,10.22656 3.82421,14.60937 3.86719,4.38281 10.74219,4.38281 3.26563,0 6.23047,-0.94531 2.96484,-0.94531 6.78906,-3.22266 v -5.92968 z"
         id="text2"
         aria-label="PLUMBING" />
    </g>
  </g>
</svg>
