<svg xmlns="http://www.w3.org/2000/svg" xmlns:xlink="http://www.w3.org/1999/xlink" width="800" zoomAndPan="magnify" viewBox="0 0 600 599.999999" height="800" preserveAspectRatio="xMidYMid meet" version="1.0"><defs><clipPath id="63095325be"><path d="M 0 26.523438 L 600 26.523438 L 600 600 L 0 600 Z M 0 26.523438 " clip-rule="nonzero"/></clipPath><clipPath id="8f7906a8d5"><path d="M 300.839844 26.523438 L 371.859375 245.570312 L 601.679688 245.570312 L 415.75 380.953125 L 486.769531 600 L 300.839844 464.621094 L 114.910156 600 L 185.929688 380.953125 L 0 245.570312 L 229.820312 245.570312 Z M 300.839844 26.523438 " clip-rule="nonzero"/></clipPath><clipPath id="d1ec4cf57d"><path d="M 0 0.523438 L 600 0.523438 L 600 574 L 0 574 Z M 0 0.523438 " clip-rule="nonzero"/></clipPath><clipPath id="bac616d0db"><path d="M 300.839844 0.523438 L 371.859375 219.570312 L 601.679688 219.570312 L 415.75 354.953125 L 486.769531 574 L 300.839844 438.621094 L 114.910156 574 L 185.929688 354.953125 L 0 219.570312 L 229.820312 219.570312 Z M 300.839844 0.523438 " clip-rule="nonzero"/></clipPath><clipPath id="459217c0b1"><rect x="0" width="600" y="0" height="574"/></clipPath><clipPath id="6bc6d9e46a"><path d="M 0 0 L 600 0 L 600 573.476562 L 0 573.476562 Z M 0 0 " clip-rule="nonzero"/></clipPath><clipPath id="3d1b3904c0"><path d="M 300.839844 0 L 371.859375 219.046875 L 601.679688 219.046875 L 415.75 354.429688 L 486.769531 573.476562 L 300.839844 438.097656 L 114.910156 573.476562 L 185.929688 354.429688 L 0 219.046875 L 229.820312 219.046875 Z M 300.839844 0 " clip-rule="nonzero"/></clipPath><clipPath id="b02a92394d"><path d="M 0 0 L 600 0 L 600 573.476562 L 0 573.476562 Z M 0 0 " clip-rule="nonzero"/></clipPath><clipPath id="c1c806121f"><path d="M 300.839844 0 L 371.859375 219.046875 L 601.679688 219.046875 L 415.75 354.429688 L 486.769531 573.476562 L 300.839844 438.097656 L 114.910156 573.476562 L 185.929688 354.429688 L 0 219.046875 L 229.820312 219.046875 Z M 300.839844 0 " clip-rule="nonzero"/></clipPath><clipPath id="629a6d923e"><rect x="0" width="600" y="0" height="574"/></clipPath><clipPath id="a530807893"><rect x="0" width="600" y="0" height="600"/></clipPath></defs><g transform="matrix(1, 0, 0, 1, 0, -0.000000000000034788)"><g clip-path="url(#a530807893)"><g clip-path="url(#63095325be)"><g clip-path="url(#8f7906a8d5)"><g transform="matrix(1, 0, 0, 1, 0, 26)"><g clip-path="url(#459217c0b1)"><g clip-path="url(#d1ec4cf57d)"><g clip-path="url(#bac616d0db)"><path fill="#bd0006" d="M 0 0.523438 L 602.597656 0.523438 L 602.597656 574 L 0 574 Z M 0 0.523438 " fill-opacity="1" fill-rule="nonzero"/></g></g></g></g></g></g><g clip-path="url(#6bc6d9e46a)"><g clip-path="url(#3d1b3904c0)"><g transform="matrix(1, 0, 0, 1, 0, -0.000000000000034788)"><g clip-path="url(#629a6d923e)"><g clip-path="url(#b02a92394d)"><g clip-path="url(#c1c806121f)"><path fill="#ffc60c" d="M 0 0 L 602.597656 0 L 602.597656 573.476562 L 0 573.476562 Z M 0 0 " fill-opacity="1" fill-rule="nonzero"/></g></g></g></g></g></g></g></g></svg>